# xmcd
#
# Track frame offsets: 
#        150
#        19905
#        37792
#        56865
#        78945
#        96075
#        115080
#        137772
#        160007
#        178447
#        201502
#        226367
#        248245
#
# Disc length: 3525 seconds
#
# Revision: 4
# Processed by: cddbd v1.5.2PL0 Copyright (c) Steve Scherf et al.
# Submitted via: ExactAudioCopy v0.99pb1
#
DISCID=ad0dc30d
DTITLE=Dave Koz - Saxophonic
DYEAR=2003
DGENRE=Jazz - Smooth
TTITLE0=Honey-Dipped
TTITLE1=Love Changes Everything
TTITLE2=All I See Is You
TTITLE3=Just To Be Next To You
TTITLE4=Let It Free
TTITLE5=Undeniable
TTITLE6=Saxophonic (Come On Up)
TTITLE7=Definition Of Beautiful
TTITLE8=Sound Of The Underground
TTITLE9=Only Tomorrow Knows
TTITLE10=I Believe
TTITLE11=A View From Above
TTITLE12=One Last Thing
EXTD=YEAR: 2003
EXTT0=
EXTT1=
EXTT2=
EXTT3=
EXTT4=
EXTT5=
EXTT6=
EXTT7=
EXTT8=
EXTT9=
EXTT10=
EXTT11=
EXTT12=
PLAYORDER=
